<svg width="24" height="24" viewBox="0 0 24 24" fill="none" xmlns="http://www.w3.org/2000/svg">
<path d="M17.5857 7.41424L14.3341 9.9693L7.175 4.6C6.65571 4.21053 6.02411 4 5.375 4H3V4.639C3 4.94585 3.14088 5.23571 3.38216 5.4253L11.7496 12L3 18.875V20H5.375C6.02411 20 6.65571 19.7895 7.175 19.4L14.3341 14.0307L17.5857 16.5858" stroke="url(#paint0_linear_357_197)" stroke-width="1.5" stroke-linecap="round" stroke-linejoin="round"/>
<circle cx="19" cy="18" r="2" stroke="url(#paint1_linear_357_197)" stroke-width="1.5" stroke-linecap="round" stroke-linejoin="round"/>
<circle cx="19" cy="6" r="2" stroke="url(#paint2_linear_357_197)" stroke-width="1.5" stroke-linecap="round" stroke-linejoin="round"/>
<path d="M17 12H18" stroke="url(#paint3_linear_357_197)" stroke-width="1.5" stroke-linecap="round" stroke-linejoin="round"/>
<path d="M21 12H22" stroke="url(#paint4_linear_357_197)" stroke-width="1.5" stroke-linecap="round" stroke-linejoin="round"/>
<path d="M7 12H6" stroke="url(#paint5_linear_357_197)" stroke-width="1.5" stroke-linecap="round" stroke-linejoin="round"/>
<path d="M3 12H2" stroke="url(#paint6_linear_357_197)" stroke-width="1.5" stroke-linecap="round" stroke-linejoin="round"/>
<path d="M17 12H18" stroke="url(#paint7_linear_357_197)" stroke-width="1.5" stroke-linecap="round" stroke-linejoin="round"/>
<path d="M21 12H22" stroke="url(#paint8_linear_357_197)" stroke-width="1.5" stroke-linecap="round" stroke-linejoin="round"/>
<path d="M7 12H6" stroke="url(#paint9_linear_357_197)" stroke-width="1.5" stroke-linecap="round" stroke-linejoin="round"/>
<path d="M3 12H2" stroke="url(#paint10_linear_357_197)" stroke-width="1.5" stroke-linecap="round" stroke-linejoin="round"/>
<defs>
<linearGradient id="paint0_linear_357_197" x1="3" y1="12" x2="17.5857" y2="12" gradientUnits="userSpaceOnUse">
<stop stop-color="#FF3033"/>
<stop offset="1" stop-color="#EF7800"/>
</linearGradient>
<linearGradient id="paint1_linear_357_197" x1="17" y1="18" x2="21" y2="18" gradientUnits="userSpaceOnUse">
<stop stop-color="#FF3033"/>
<stop offset="1" stop-color="#EF7800"/>
</linearGradient>
<linearGradient id="paint2_linear_357_197" x1="17" y1="6" x2="21" y2="6" gradientUnits="userSpaceOnUse">
<stop stop-color="#FF3033"/>
<stop offset="1" stop-color="#EF7800"/>
</linearGradient>
<linearGradient id="paint3_linear_357_197" x1="17" y1="12" x2="18" y2="12" gradientUnits="userSpaceOnUse">
<stop stop-color="#FF3033"/>
<stop offset="1" stop-color="#EF7800"/>
</linearGradient>
<linearGradient id="paint4_linear_357_197" x1="21" y1="12" x2="22" y2="12" gradientUnits="userSpaceOnUse">
<stop stop-color="#FF3033"/>
<stop offset="1" stop-color="#EF7800"/>
</linearGradient>
<linearGradient id="paint5_linear_357_197" x1="6" y1="12" x2="7" y2="12" gradientUnits="userSpaceOnUse">
<stop stop-color="#FF3033"/>
<stop offset="1" stop-color="#EF7800"/>
</linearGradient>
<linearGradient id="paint6_linear_357_197" x1="2" y1="12" x2="3" y2="12" gradientUnits="userSpaceOnUse">
<stop stop-color="#FF3033"/>
<stop offset="1" stop-color="#EF7800"/>
</linearGradient>
<linearGradient id="paint7_linear_357_197" x1="17" y1="12" x2="18" y2="12" gradientUnits="userSpaceOnUse">
<stop stop-color="#FF3033"/>
<stop offset="1" stop-color="#EF7800"/>
</linearGradient>
<linearGradient id="paint8_linear_357_197" x1="21" y1="12" x2="22" y2="12" gradientUnits="userSpaceOnUse">
<stop stop-color="#FF3033"/>
<stop offset="1" stop-color="#EF7800"/>
</linearGradient>
<linearGradient id="paint9_linear_357_197" x1="6" y1="12" x2="7" y2="12" gradientUnits="userSpaceOnUse">
<stop stop-color="#FF3033"/>
<stop offset="1" stop-color="#EF7800"/>
</linearGradient>
<linearGradient id="paint10_linear_357_197" x1="2" y1="12" x2="3" y2="12" gradientUnits="userSpaceOnUse">
<stop stop-color="#FF3033"/>
<stop offset="1" stop-color="#EF7800"/>
</linearGradient>
</defs>
</svg>
