<svg width="32" height="32" viewBox="0 0 32 32" fill="none" xmlns="http://www.w3.org/2000/svg">
<path d="M10.0002 4V8" stroke="url(#paint0_linear_357_218)" stroke-width="2" stroke-linecap="round" stroke-linejoin="round"/>
<path d="M22.0002 4V8" stroke="url(#paint1_linear_357_218)" stroke-width="2" stroke-linecap="round" stroke-linejoin="round"/>
<rect x="4" y="6" width="24" height="22" rx="3" stroke="url(#paint2_linear_357_218)" stroke-width="2" stroke-linecap="round" stroke-linejoin="round"/>
<path d="M17.7598 21.3334H21.3331" stroke="url(#paint3_linear_357_218)" stroke-width="2" stroke-linecap="round" stroke-linejoin="round"/>
<path d="M19.5468 21.3334V14.6667L17.6001 16.4267" stroke="url(#paint4_linear_357_218)" stroke-width="2" stroke-linecap="round" stroke-linejoin="round"/>
<path d="M10.6665 15.9467C10.8706 15.1958 11.5497 14.6726 12.3278 14.6667C13.2991 14.6667 14.0865 15.4541 14.0865 16.4254C14.0863 17.295 13.3814 17.9998 12.5118 18.0001C13.3814 18.0003 14.0863 18.7052 14.0865 19.5747C14.0865 20.546 13.2991 21.3334 12.3278 21.3334C11.5497 21.3276 10.8706 20.8044 10.6665 20.0534" stroke="url(#paint5_linear_357_218)" stroke-width="2" stroke-linecap="round" stroke-linejoin="round"/>
<defs>
<linearGradient id="paint0_linear_357_218" x1="9.3335" y1="6" x2="10.6668" y2="6" gradientUnits="userSpaceOnUse">
<stop stop-color="#FF3033"/>
<stop offset="1" stop-color="#EF7800"/>
</linearGradient>
<linearGradient id="paint1_linear_357_218" x1="21.3335" y1="6" x2="22.6668" y2="6" gradientUnits="userSpaceOnUse">
<stop stop-color="#FF3033"/>
<stop offset="1" stop-color="#EF7800"/>
</linearGradient>
<linearGradient id="paint2_linear_357_218" x1="4" y1="17" x2="28" y2="17" gradientUnits="userSpaceOnUse">
<stop stop-color="#FF3033"/>
<stop offset="1" stop-color="#EF7800"/>
</linearGradient>
<linearGradient id="paint3_linear_357_218" x1="17.7598" y1="21.3334" x2="21.3331" y2="21.3334" gradientUnits="userSpaceOnUse">
<stop stop-color="#FF3033"/>
<stop offset="1" stop-color="#EF7800"/>
</linearGradient>
<linearGradient id="paint4_linear_357_218" x1="17.6001" y1="18.0001" x2="19.5468" y2="18.0001" gradientUnits="userSpaceOnUse">
<stop stop-color="#FF3033"/>
<stop offset="1" stop-color="#EF7800"/>
</linearGradient>
<linearGradient id="paint5_linear_357_218" x1="10.6665" y1="18.0001" x2="14.0865" y2="18.0001" gradientUnits="userSpaceOnUse">
<stop stop-color="#FF3033"/>
<stop offset="1" stop-color="#EF7800"/>
</linearGradient>
</defs>
</svg>
