<svg width="24" height="24" viewBox="0 0 24 24" fill="none" xmlns="http://www.w3.org/2000/svg">
<path d="M3 12H7.172C8.734 12 10 10.734 10 9.17198V9.17198C10 8.42198 9.702 7.70198 9.172 7.17198L6.717 4.71698" stroke="url(#paint0_linear_444_34)" stroke-width="2" stroke-linecap="round" stroke-linejoin="round"/>
<path d="M18.2921 18.438L16.5151 15.773C16.1931 15.29 15.6521 15 15.0721 15V15C14.4151 15 13.8151 14.629 13.5211 14.041L13.3881 13.775C13.1441 13.287 13.1441 12.712 13.3881 12.224L14.5211 9.958C14.8141 9.371 15.4151 9 16.0721 9H20.4801" stroke="url(#paint1_linear_444_34)" stroke-width="2" stroke-linecap="round" stroke-linejoin="round"/>
<path d="M12 3C16.982 3 21 7.018 21 12C21 16.982 16.982 21 12 21" stroke="url(#paint2_linear_444_34)" stroke-width="2" stroke-linecap="round" stroke-linejoin="round"/>
<path d="M12 21C7.018 21 3 16.982 3 12C3 7.018 7.018 3 12 3" stroke="url(#paint3_linear_444_34)" stroke-width="2" stroke-linecap="round" stroke-linejoin="round"/>
<defs>
<linearGradient id="paint0_linear_444_34" x1="3" y1="8.35848" x2="10" y2="8.35848" gradientUnits="userSpaceOnUse">
<stop stop-color="#FF3033"/>
<stop offset="1" stop-color="#EF7800"/>
</linearGradient>
<linearGradient id="paint1_linear_444_34" x1="13.2051" y1="13.719" x2="20.4801" y2="13.719" gradientUnits="userSpaceOnUse">
<stop stop-color="#FF3033"/>
<stop offset="1" stop-color="#EF7800"/>
</linearGradient>
<linearGradient id="paint2_linear_444_34" x1="12" y1="12" x2="21" y2="12" gradientUnits="userSpaceOnUse">
<stop stop-color="#FF3033"/>
<stop offset="1" stop-color="#EF7800"/>
</linearGradient>
<linearGradient id="paint3_linear_444_34" x1="3" y1="12" x2="12" y2="12" gradientUnits="userSpaceOnUse">
<stop stop-color="#FF3033"/>
<stop offset="1" stop-color="#EF7800"/>
</linearGradient>
</defs>
</svg>
