<svg width="32" height="32" viewBox="0 0 32 32" fill="none" xmlns="http://www.w3.org/2000/svg">
<path fill-rule="evenodd" clip-rule="evenodd" d="M17.9998 18.6667H21.6662C21.9721 18.6667 22.2387 18.4585 22.3129 18.1617L23.3129 14.1617C23.3627 13.9625 23.318 13.7515 23.1916 13.5897C23.0653 13.4279 22.8715 13.3333 22.6662 13.3333H17.9998V10.6667C17.9998 9.93029 18.5968 9.33333 19.3332 9.33333H22.6665C23.0347 9.33333 23.3332 9.03486 23.3332 8.66667V4.66667C23.3332 4.29848 23.0347 4 22.6665 4H19.3332C15.6513 4 12.6665 6.98477 12.6665 10.6667V13.3333H9.33317C8.96498 13.3333 8.6665 13.6318 8.6665 14V18C8.6665 18.3682 8.96498 18.6667 9.33317 18.6667H12.6665V27.3333C12.6665 27.7015 12.965 28 13.3332 28H17.3332C17.7014 28 17.9998 27.7015 17.9998 27.3333V18.6667Z" stroke="white" stroke-width="1.5" stroke-linecap="round" stroke-linejoin="round"/>
</svg>
