<svg width="52" height="48" viewBox="0 0 52 48" fill="none" xmlns="http://www.w3.org/2000/svg">
<rect width="51.6656" height="48" rx="12" fill="url(#paint0_linear_425_6807)"/>
<path d="M15.335 39.9872C12.9916 40.1227 10.2748 39.1789 9.02643 37.2495C8.63801 36.6487 8.38958 35.9546 8.38958 35.9546C8.03004 34.9454 7.91894 33.8252 8.05804 32.6081C8.21981 31.1968 8.6749 29.981 8.97577 29.1767C10.3864 25.4085 13.1871 23.3648 15.2323 21.8726C17.2656 20.3898 19.5303 19.2362 21.9746 18.4373C21.9302 18.0524 21.8427 17.4645 21.6547 16.7736C21.1391 14.8814 19.7321 11.7202 17.7553 11.5411C17.2096 11.4918 16.2301 11.6349 15.9607 12.2828C15.8643 12.5148 15.8887 12.7414 15.9007 12.8405C15.9976 13.6541 16.8602 14.2225 17.5842 14.3233C18.1073 14.3962 18.5433 14.2225 18.8046 14.0816C19.2183 14.993 19.6325 15.9039 20.0463 16.8153C19.549 17.0797 18.6148 17.4868 17.3922 17.4952C16.1469 17.5041 15.1941 17.0948 14.6932 16.8331L14.6884 16.8304C14.2444 16.5865 12.8938 15.8439 12.3143 14.2353C12.1752 13.8514 11.8818 12.8316 12.1725 11.6873C12.6907 9.64771 14.7555 8.31461 16.5274 8.05155C16.7576 8.01733 16.9918 8 17.2242 8C20.8063 8 23.4861 12.0317 23.987 12.8396C24.9776 14.4371 25.31 15.9017 25.582 17.5196C26.9211 17.2041 28.2921 17.006 29.6671 16.9304C30.0956 16.9069 30.5302 16.8949 30.9595 16.8949C32.2021 16.8949 33.454 16.9948 34.6802 17.1913C34.9531 17.2353 35.2104 17.3539 35.4237 17.5343L36.2943 18.2706C36.6245 18.5497 36.7899 18.9834 36.7361 19.4304C36.6819 19.8819 36.4041 20.2707 36.0104 20.4449L34.9046 20.935C34.7135 21.0199 34.5118 21.0626 34.3051 21.0626C34.238 21.0626 34.17 21.0577 34.1033 21.0488C33.0687 20.9048 32.0159 20.8315 30.9737 20.8315C30.5164 20.8315 30.0529 20.8457 29.5965 20.8737C28.3868 20.9466 27.1753 21.119 25.9873 21.3874C26.0544 24.386 25.5242 26.7927 25.1656 28.4217C24.6198 30.8995 24.1154 33.12 22.5675 35.3858C22.1862 35.9435 21.4876 36.95 20.301 37.9067C19.605 38.4684 17.8535 39.8415 15.335 39.9872ZM22.0511 22.5734C20.7916 22.9978 19.2881 23.6945 17.7593 24.8575C15.7283 26.4021 14.6213 28.032 13.6649 29.4389C12.7911 30.7249 12.4169 31.5456 12.2947 32.5356C12.2312 33.0484 12.0538 34.4824 12.8516 35.3418C13.3693 35.8999 14.0524 35.9506 14.3933 35.971C14.8359 35.9973 16.0421 35.9701 17.7335 34.3744C20.6689 31.6047 21.4547 27.5165 21.7275 26.0012C21.9831 24.5775 22.0422 23.3755 22.0511 22.5734Z" fill="white"/>
<path d="M38.2611 24.3105C37.7753 24.3105 37.318 24.063 37.038 23.648L37.0207 23.6222C36.7883 23.2778 36.6971 22.841 36.7714 22.4246C36.8478 21.9931 37.0949 21.6132 37.4491 21.3826L39.9894 19.7256L38.3219 17.2527C38.0891 16.9074 37.998 16.471 38.0722 16.0546C38.1486 15.6232 38.3957 15.2432 38.7499 15.0126L38.7757 14.9957C39.0121 14.8415 39.285 14.7598 39.5641 14.7598C40.0499 14.7598 40.5072 15.0073 40.7872 15.4223L43.3906 19.2825C43.6235 19.6278 43.7146 20.0642 43.6403 20.4805C43.5639 20.912 43.3168 21.2919 42.9626 21.5226L39.0499 24.0746C38.813 24.2288 38.5402 24.3105 38.2611 24.3105Z" fill="white"/>
<defs>
<linearGradient id="paint0_linear_425_6807" x1="0" y1="24" x2="51.6656" y2="24" gradientUnits="userSpaceOnUse">
<stop stop-color="#FF3033"/>
<stop offset="1" stop-color="#EF7800"/>
</linearGradient>
</defs>
</svg>
