<svg width="26" height="32" viewBox="0 0 26 32" fill="none" xmlns="http://www.w3.org/2000/svg">
<path d="M25.1696 11.069C24.9844 11.2085 21.714 12.9974 21.714 16.975C21.714 21.5759 25.8754 23.2036 26 23.2439C25.9808 23.3431 25.3389 25.473 23.8059 27.6432C22.439 29.553 21.0114 31.4597 18.8397 31.4597C16.668 31.4597 16.1091 30.2351 13.602 30.2351C11.1588 30.2351 10.2901 31.5 8.30365 31.5C6.31716 31.5 4.93109 29.7328 3.33743 27.5626C1.49146 25.0142 0 21.0551 0 17.2975C0 11.2705 4.03685 8.07406 8.00983 8.07406C10.1209 8.07406 11.8806 9.41959 13.206 9.41959C14.4675 9.41959 16.4348 7.99345 18.8365 7.99345C19.7467 7.99345 23.0171 8.07406 25.1696 11.069ZM17.6964 5.44189C18.6896 4.29788 19.3922 2.71052 19.3922 1.12316C19.3922 0.90304 19.3731 0.679818 19.3315 0.5C17.7155 0.558906 15.7929 1.5448 14.6336 2.85003C13.7234 3.85454 12.8738 5.44189 12.8738 7.05096C12.8738 7.29278 12.9154 7.5346 12.9345 7.61211C13.0367 7.63071 13.2028 7.65242 13.3689 7.65242C14.8188 7.65242 16.6424 6.70992 17.6964 5.44189Z" fill="white"/>
</svg>
