<svg width="31" height="44" viewBox="0 0 31 44" fill="none" xmlns="http://www.w3.org/2000/svg">
<g clip-path="url(#clip0_33_165)">
<path d="M0 37.6286H2.33278C3.24096 37.6286 3.91504 37.7547 4.3551 38.0085C4.7967 38.2623 5.01669 38.6567 5.01669 39.1921C5.01669 39.5456 4.91992 39.8463 4.72804 40.0957C4.53609 40.345 4.28332 40.5049 3.96968 40.5767V40.6193C4.38322 40.7219 4.68437 40.8949 4.87001 41.1355C5.05571 41.3761 5.14936 41.6885 5.14936 42.0728C5.14936 42.6434 4.92158 43.0922 4.4659 43.4193C4.01028 43.7478 3.38771 43.9121 2.60123 43.9121H6.64648e-05V37.6287L0 37.6286ZM1.80538 40.0399H2.34999C2.60901 40.0399 2.81033 39.99 2.9523 39.8887C3.09433 39.789 3.16452 39.6394 3.16452 39.4429C3.16452 39.0894 2.88052 38.9134 2.3141 38.9134H1.80545V40.0398L1.80538 40.0399ZM1.80538 41.2807V42.6008H2.44198C3.00527 42.6008 3.28775 42.3778 3.28775 41.9305C3.28775 41.7207 3.21284 41.5609 3.0615 41.4479C2.91016 41.3365 2.69176 41.2807 2.40456 41.2807H1.80538ZM11.1474 41.4685C11.1474 42.2649 10.9196 42.8853 10.464 43.3312C10.0099 43.7771 9.37173 44 8.55255 44C7.76608 44 7.14038 43.7726 6.67692 43.3165C6.21193 42.8604 5.97944 42.2443 5.97944 41.4684C5.97944 40.6734 6.20721 40.0574 6.66289 39.6174C7.11851 39.1773 7.7567 38.9574 8.57901 38.9574C9.08773 38.9574 9.5371 39.0586 9.92718 39.2624C10.3173 39.4663 10.6184 39.7582 10.8306 40.1381C11.0413 40.5165 11.1474 40.9609 11.1474 41.4684V41.4685ZM7.79412 41.4655C7.79412 41.8835 7.85341 42.2033 7.97198 42.4218C8.09056 42.6403 8.29035 42.7504 8.57123 42.7504C8.84739 42.7504 9.04247 42.6404 9.15792 42.4218C9.27184 42.2033 9.328 41.8835 9.328 41.4655C9.328 41.0505 9.27024 40.7366 9.15479 40.5254C9.03934 40.3127 8.84114 40.207 8.56186 40.207C8.28723 40.207 8.09056 40.3126 7.97198 40.5224C7.85341 40.7336 7.79412 41.0475 7.79412 41.4655V41.4655ZM17.1128 41.4685C17.1128 42.2649 16.885 42.8853 16.4294 43.3312C15.9753 43.7771 15.3371 44 14.518 44C13.7315 44 13.1058 43.7726 12.6423 43.3165C12.1773 42.8604 11.9448 42.2443 11.9448 41.4684C11.9448 40.6734 12.1726 40.0574 12.6283 39.6174C13.0839 39.1773 13.7221 38.9574 14.5444 38.9574C15.0531 38.9574 15.5025 39.0586 15.8926 39.2624C16.2827 39.4663 16.5838 39.7582 16.796 40.1381C17.0067 40.5165 17.1128 40.9609 17.1128 41.4684V41.4685ZM13.7595 41.4655C13.7595 41.8835 13.8188 42.2033 13.9374 42.4218C14.056 42.6403 14.2558 42.7504 14.5366 42.7504C14.8128 42.7504 15.0079 42.6404 15.1233 42.4218C15.2372 42.2033 15.2934 41.8835 15.2934 41.4655C15.2934 41.0505 15.2357 40.7366 15.1202 40.5254C15.0048 40.3127 14.8066 40.207 14.5273 40.207C14.2526 40.207 14.056 40.3126 13.9374 40.5224C13.8188 40.7336 13.7595 41.0475 13.7595 41.4655V41.4655ZM19.867 41.1766C20.0823 40.8525 20.2664 40.6001 20.4193 40.4198L21.5787 39.0455H23.5729L21.7768 41.115L23.6868 43.912H21.6427L20.5114 42.1681L19.9309 42.5846V43.912H18.1333V37.2238H19.9309V39.8551C19.9309 40.3054 19.8966 40.7454 19.8295 41.1766H19.8669H19.867ZM26.1023 43.912H24.3141V39.0455H26.1023V43.912ZM24.2688 37.831C24.2688 37.5787 24.3437 37.391 24.492 37.2678C24.6418 37.1446 24.8837 37.083 25.2145 37.083C25.5469 37.083 25.7903 37.146 25.9417 37.2722C26.0946 37.3983 26.171 37.5846 26.171 37.831C26.171 38.3239 25.8527 38.5703 25.2145 38.5703C24.5841 38.5703 24.2689 38.3239 24.2689 37.831H24.2688ZM29.8878 42.6712C30.1281 42.6712 30.4168 42.6154 30.7508 42.504V43.7287C30.5105 43.8269 30.2811 43.8958 30.0626 43.937C29.8457 43.9795 29.5899 44.0001 29.2981 44.0001C28.6973 44.0001 28.2651 43.8622 27.9998 43.585C27.7346 43.3093 27.6019 42.8839 27.6019 42.3104V40.3039H26.9747V39.6205L27.7704 39.0924L28.2324 38.0702H29.4026V39.0455H30.6744V40.3039H29.4026V42.199C29.4026 42.5143 29.5634 42.6712 29.8879 42.6712L29.8878 42.6712Z" fill="#EF7800"/>
<path fill-rule="evenodd" clip-rule="evenodd" d="M0.00319031 1.35157L0 32.8729C0.00139576 34.2772 0.650889 34.0343 2.58442 34.0344L16.8658 34.0414C22.4466 34.0399 27.4611 32.5559 30.0231 27.6456C31.2518 25.2909 31.3391 22.4439 30.1844 20.0525C29.673 18.9935 28.8042 17.9981 28.0641 17.3756C27.6008 16.986 27.1646 16.6709 26.6293 16.3395C26.0684 15.9922 25.4321 15.8198 24.9953 15.4715C25.5395 14.8567 27.6442 13.9824 28.4712 11.0788C29.1647 8.64402 28.5028 6.48628 27.387 4.78785C26.4028 3.28984 24.9032 2.12301 22.9364 1.21875C20.2326 -0.0243639 17.8933 -0.00081112 14.7501 0.000188471L1.31501 6.35219e-05C0.0880658 -6.1427e-05 0.00525072 0.198732 0.00319031 1.35157ZM9.97603 15.1732C9.97523 18.9036 9.84629 25.4799 9.98693 28.9038L11.788 28.9308C17.6761 28.9898 16.5794 24.6936 16.582 19.5484C16.5842 15.354 15.5591 13.9708 9.9735 14.4501L9.97603 15.1732ZM12.0033 5.20237C7.86863 6.25157 8.91392 12.6328 14.0042 11.5049C18.3451 10.5429 16.8625 3.96925 12.0033 5.20237Z" fill="#EF7800"/>
</g>
<defs>
<clipPath id="clip0_33_165">
<rect width="31" height="44" fill="white"/>
</clipPath>
</defs>
</svg>
