<svg width="24" height="24" viewBox="0 0 24 24" fill="none" xmlns="http://www.w3.org/2000/svg">
<path d="M20.7923 9.52349C21.5824 10.3135 21.5824 11.5944 20.7923 12.3844C20.0023 13.1745 18.7214 13.1745 17.9314 12.3844C17.1414 11.5944 17.1414 10.3135 17.9314 9.52349C18.7214 8.73346 20.0023 8.73346 20.7923 9.52349" stroke="url(#paint0_linear_444_230)" stroke-width="2" stroke-linecap="round" stroke-linejoin="round"/>
<path d="M14.2024 5.91236C15.4189 7.12884 15.4189 9.10115 14.2024 10.3176C12.9859 11.5341 11.0136 11.5341 9.79713 10.3176C8.58065 9.10116 8.58065 7.12885 9.79713 5.91236C11.0136 4.69588 12.9859 4.69588 14.2024 5.91236" stroke="url(#paint1_linear_444_230)" stroke-width="2" stroke-linecap="round" stroke-linejoin="round"/>
<path d="M6.06871 9.52349C6.85874 10.3135 6.85874 11.5944 6.06871 12.3844C5.27868 13.1745 3.99779 13.1745 3.20776 12.3844C2.41773 11.5944 2.41773 10.3135 3.20776 9.52349C3.99779 8.73346 5.27868 8.73346 6.06871 9.52349" stroke="url(#paint2_linear_444_230)" stroke-width="2" stroke-linecap="round" stroke-linejoin="round"/>
<path d="M23.0002 19V17.904C23.0002 16.523 21.8812 15.404 20.5002 15.404H19.6992" stroke="url(#paint3_linear_444_230)" stroke-width="2" stroke-linecap="round" stroke-linejoin="round"/>
<path d="M1 19V17.904C1 16.523 2.119 15.404 3.5 15.404H4.301" stroke="url(#paint4_linear_444_230)" stroke-width="2" stroke-linecap="round" stroke-linejoin="round"/>
<path d="M17.3392 19V17.399C17.3392 15.466 15.7722 13.899 13.8392 13.899H10.1602C8.22716 13.899 6.66016 15.466 6.66016 17.399V19" stroke="url(#paint5_linear_444_230)" stroke-width="2" stroke-linecap="round" stroke-linejoin="round"/>
<defs>
<linearGradient id="paint0_linear_444_230" x1="17.3389" y1="10.954" x2="21.3849" y2="10.954" gradientUnits="userSpaceOnUse">
<stop stop-color="#FF3033"/>
<stop offset="1" stop-color="#EF7800"/>
</linearGradient>
<linearGradient id="paint1_linear_444_230" x1="8.88477" y1="8.115" x2="15.1148" y2="8.115" gradientUnits="userSpaceOnUse">
<stop stop-color="#FF3033"/>
<stop offset="1" stop-color="#EF7800"/>
</linearGradient>
<linearGradient id="paint2_linear_444_230" x1="2.61523" y1="10.954" x2="6.66123" y2="10.954" gradientUnits="userSpaceOnUse">
<stop stop-color="#FF3033"/>
<stop offset="1" stop-color="#EF7800"/>
</linearGradient>
<linearGradient id="paint3_linear_444_230" x1="19.6992" y1="17.202" x2="23.0002" y2="17.202" gradientUnits="userSpaceOnUse">
<stop stop-color="#FF3033"/>
<stop offset="1" stop-color="#EF7800"/>
</linearGradient>
<linearGradient id="paint4_linear_444_230" x1="1" y1="17.202" x2="4.301" y2="17.202" gradientUnits="userSpaceOnUse">
<stop stop-color="#FF3033"/>
<stop offset="1" stop-color="#EF7800"/>
</linearGradient>
<linearGradient id="paint5_linear_444_230" x1="6.66016" y1="16.4495" x2="17.3392" y2="16.4495" gradientUnits="userSpaceOnUse">
<stop stop-color="#FF3033"/>
<stop offset="1" stop-color="#EF7800"/>
</linearGradient>
</defs>
</svg>
