<svg width="25" height="24" viewBox="0 0 25 24" fill="none" xmlns="http://www.w3.org/2000/svg">
<path fill-rule="evenodd" clip-rule="evenodd" d="M10.453 20.0495L10.7921 19.7103C11.2451 19.2574 11.8594 19.0029 12.4999 19.0029V19.0029C13.1405 19.0029 13.7548 19.2574 14.2077 19.7104L14.5469 20.0495C15.1579 20.6605 15.9867 21.0038 16.8508 21.0038H17.245C19.0445 21.0038 20.5032 19.545 20.5032 17.7455V17.7455C20.5032 16.6561 19.9588 15.6387 19.0523 15.0344V15.0344C18.0325 14.3545 17.1829 13.4489 16.5696 12.3877L15.6492 10.7955C15.0065 9.68362 13.8197 8.99878 12.5354 8.99878V8.99878C11.2721 8.99878 10.1014 9.66162 9.4514 10.7449L8.42122 12.4619C7.81322 13.4752 6.98779 14.3409 6.00453 14.9964L5.94751 15.0344C5.04106 15.6387 4.49658 16.6561 4.49658 17.7455V17.7455C4.49658 19.545 5.95537 21.0038 7.75488 21.0038H8.14904C9.01319 21.0038 9.84195 20.6605 10.453 20.0495V20.0495Z" stroke="#EF7800" stroke-width="1.5" stroke-linecap="round" stroke-linejoin="round"/>
<circle cx="4.99721" cy="9.49892" r="1.50063" stroke="#EF7800" stroke-width="1.5" stroke-linecap="round" stroke-linejoin="round"/>
<circle cx="20.0031" cy="9.49892" r="1.50063" stroke="#EF7800" stroke-width="1.5" stroke-linecap="round" stroke-linejoin="round"/>
<circle cx="9.28432" cy="4.49684" r="1.50063" stroke="#EF7800" stroke-width="1.5" stroke-linecap="round" stroke-linejoin="round"/>
<circle cx="15.716" cy="4.49684" r="1.50063" stroke="#EF7800" stroke-width="1.5" stroke-linecap="round" stroke-linejoin="round"/>
</svg>
