<svg width="26" height="28" viewBox="0 0 26 28" fill="none" xmlns="http://www.w3.org/2000/svg">
<path d="M18.9871 18.3135C22.244 16.4932 24.7345 15.1063 24.9474 14.998C25.6286 14.6296 26.331 13.6545 24.9474 12.896C24.5004 12.6576 22.095 11.3141 18.9871 9.58051L14.7085 13.9578L18.9871 18.3135Z" fill="#FFDD33"/>
<path d="M14.71 13.9579L1.04395 27.9784C1.36325 28.0217 1.72512 27.9351 2.15085 27.6967C3.0449 27.1983 12.5388 21.9108 18.9887 18.3136L14.71 13.9579Z" fill="#FF6666"/>
<path d="M14.7079 13.9578L18.9865 9.5805C18.9865 9.5805 3.10661 0.760829 2.1487 0.24075C1.78683 0.0240503 1.38238 -0.0409596 1.02051 0.0240503L14.7079 13.9578Z" fill="#7BFF7B"/>
<path d="M14.7091 13.9579L1.02176 0.0241089C0.468308 0.154129 0 0.652539 0 1.67103C0 3.29627 0 24.9662 0 26.3314C0 27.2632 0.361875 27.935 1.04305 28L14.7091 13.9579Z" fill="#6ED8FF"/>
</svg>
