<svg width="24" height="24" viewBox="0 0 24 24" fill="none" xmlns="http://www.w3.org/2000/svg">
<path d="M10.5858 15.5355L5.56066 20.5606C4.97487 21.1464 4.02513 21.1464 3.43934 20.5606V20.5606C2.85355 19.9748 2.85355 19.0251 3.43934 18.4393L8.46447 13.4142" stroke="url(#paint0_linear_357_23)" stroke-width="1.5" stroke-linecap="round" stroke-linejoin="round"/>
<path d="M17.3015 3L12.6136 7.68782C11.8326 8.46889 11.8326 9.73518 12.6136 10.5163L13.3207 11.2233C13.6958 11.5984 14.2045 11.8091 14.7349 11.8091C15.2654 11.8091 15.7741 11.5984 16.1491 11.2233L20.837 6.53552" stroke="url(#paint1_linear_357_23)" stroke-width="1.5" stroke-linecap="round" stroke-linejoin="round"/>
<path fill-rule="evenodd" clip-rule="evenodd" d="M13.8179 15.9393L15.9392 13.818L20.5605 18.4393C21.1463 19.0251 21.1463 19.9749 20.5605 20.5607V20.5607C19.9747 21.1464 19.025 21.1464 18.4392 20.5607L13.8179 15.9393Z" stroke="url(#paint2_linear_357_23)" stroke-width="1.5" stroke-linecap="round" stroke-linejoin="round"/>
<path d="M16.2271 7.6098L19.0691 4.7677" stroke="url(#paint3_linear_357_23)" stroke-width="1.5" stroke-linecap="round" stroke-linejoin="round"/>
<path d="M15.0889 12.9836L15.9396 13.818L12.7576 17C12.6638 17.0937 12.5367 17.1464 12.404 17.1464C12.2714 17.1464 12.1443 17.0937 12.0505 17L8.40439 13.3539C5.15749 10.107 4.10464 5.89557 6.05278 3.94743H6.06902L6.05441 3.9458L15.9331 13.8245" stroke="url(#paint4_linear_357_23)" stroke-width="1.5" stroke-linecap="round" stroke-linejoin="round"/>
<path d="M17.995 9.37757L14.4595 5.84204" stroke="url(#paint5_linear_357_23)" stroke-width="1.5" stroke-linecap="round" stroke-linejoin="round"/>
<defs>
<linearGradient id="paint0_linear_357_23" x1="3" y1="17.2071" x2="10.5858" y2="17.2071" gradientUnits="userSpaceOnUse">
<stop stop-color="#FF3033"/>
<stop offset="1" stop-color="#EF7800"/>
</linearGradient>
<linearGradient id="paint1_linear_357_23" x1="12.0278" y1="7.40457" x2="20.837" y2="7.40457" gradientUnits="userSpaceOnUse">
<stop stop-color="#FF3033"/>
<stop offset="1" stop-color="#EF7800"/>
</linearGradient>
<linearGradient id="paint2_linear_357_23" x1="16.6589" y1="18.7803" x2="18.7802" y2="16.659" gradientUnits="userSpaceOnUse">
<stop stop-color="#FF3033"/>
<stop offset="1" stop-color="#EF7800"/>
</linearGradient>
<linearGradient id="paint3_linear_357_23" x1="16.2271" y1="6.18875" x2="19.0691" y2="6.18875" gradientUnits="userSpaceOnUse">
<stop stop-color="#FF3033"/>
<stop offset="1" stop-color="#EF7800"/>
</linearGradient>
<linearGradient id="paint4_linear_357_23" x1="5.07471" y1="10.5461" x2="15.9396" y2="10.5461" gradientUnits="userSpaceOnUse">
<stop stop-color="#FF3033"/>
<stop offset="1" stop-color="#EF7800"/>
</linearGradient>
<linearGradient id="paint5_linear_357_23" x1="14.4595" y1="7.60981" x2="17.995" y2="7.60981" gradientUnits="userSpaceOnUse">
<stop stop-color="#FF3033"/>
<stop offset="1" stop-color="#EF7800"/>
</linearGradient>
</defs>
</svg>
