<svg width="32" height="32" viewBox="0 0 32 32" fill="none" xmlns="http://www.w3.org/2000/svg">
<path d="M27.7233 12.698C28.7767 13.7514 28.7767 15.4592 27.7233 16.5126C26.6699 17.566 24.9621 17.566 23.9087 16.5126C22.8553 15.4592 22.8553 13.7514 23.9087 12.698C24.9621 11.6446 26.6699 11.6446 27.7233 12.698" stroke="url(#paint0_linear_357_109)" stroke-width="2" stroke-linecap="round" stroke-linejoin="round"/>
<path d="M18.9369 7.88323C20.5588 9.5052 20.5588 12.1349 18.9369 13.7569C17.3149 15.3789 14.6851 15.3789 13.0632 13.7569C11.4412 12.135 11.4412 9.50522 13.0632 7.88323C14.6851 6.26125 17.3149 6.26125 18.9369 7.88323" stroke="url(#paint1_linear_357_109)" stroke-width="2" stroke-linecap="round" stroke-linejoin="round"/>
<path d="M8.09145 12.698C9.14482 13.7514 9.14482 15.4592 8.09145 16.5126C7.03807 17.566 5.33022 17.566 4.27685 16.5126C3.22347 15.4592 3.22347 13.7514 4.27685 12.698C5.33022 11.6446 7.03807 11.6446 8.09145 12.698" stroke="url(#paint2_linear_357_109)" stroke-width="2" stroke-linecap="round" stroke-linejoin="round"/>
<path d="M30.6665 25.3332V23.8719C30.6665 22.0306 29.1745 20.5386 27.3331 20.5386H26.2651" stroke="url(#paint3_linear_357_109)" stroke-width="2" stroke-linecap="round" stroke-linejoin="round"/>
<path d="M1.3335 25.3332V23.8719C1.3335 22.0306 2.8255 20.5386 4.66683 20.5386H5.73483" stroke="url(#paint4_linear_357_109)" stroke-width="2" stroke-linecap="round" stroke-linejoin="round"/>
<path d="M23.1185 25.3333V23.1987C23.1185 20.6213 21.0292 18.532 18.4519 18.532H13.5465C10.9692 18.532 8.87988 20.6213 8.87988 23.1987V25.3333" stroke="url(#paint5_linear_357_109)" stroke-width="2" stroke-linecap="round" stroke-linejoin="round"/>
<defs>
<linearGradient id="paint0_linear_357_109" x1="23.1187" y1="14.6053" x2="28.5133" y2="14.6053" gradientUnits="userSpaceOnUse">
<stop stop-color="#FF3033"/>
<stop offset="1" stop-color="#EF7800"/>
</linearGradient>
<linearGradient id="paint1_linear_357_109" x1="11.8467" y1="10.8201" x2="20.1533" y2="10.8201" gradientUnits="userSpaceOnUse">
<stop stop-color="#FF3033"/>
<stop offset="1" stop-color="#EF7800"/>
</linearGradient>
<linearGradient id="paint2_linear_357_109" x1="3.48682" y1="14.6053" x2="8.88148" y2="14.6053" gradientUnits="userSpaceOnUse">
<stop stop-color="#FF3033"/>
<stop offset="1" stop-color="#EF7800"/>
</linearGradient>
<linearGradient id="paint3_linear_357_109" x1="26.2651" y1="22.9359" x2="30.6665" y2="22.9359" gradientUnits="userSpaceOnUse">
<stop stop-color="#FF3033"/>
<stop offset="1" stop-color="#EF7800"/>
</linearGradient>
<linearGradient id="paint4_linear_357_109" x1="1.3335" y1="22.9359" x2="5.73483" y2="22.9359" gradientUnits="userSpaceOnUse">
<stop stop-color="#FF3033"/>
<stop offset="1" stop-color="#EF7800"/>
</linearGradient>
<linearGradient id="paint5_linear_357_109" x1="8.87988" y1="21.9326" x2="23.1185" y2="21.9326" gradientUnits="userSpaceOnUse">
<stop stop-color="#FF3033"/>
<stop offset="1" stop-color="#EF7800"/>
</linearGradient>
</defs>
</svg>
