<svg width="32" height="32" viewBox="0 0 32 32" fill="none" xmlns="http://www.w3.org/2000/svg">
<path fill-rule="evenodd" clip-rule="evenodd" d="M21.3335 19.9895C21.3386 24.3912 17.787 27.9701 13.3855 27.9987C8.98395 28.0272 5.38615 24.4948 5.33407 20.0935C5.28199 15.6922 8.7952 12.0756 13.1962 12H13.3386V16.6667H13.2763C12.2552 16.6834 11.298 17.1669 10.6785 17.9787C10.059 18.7906 9.84544 19.8414 10.0988 20.8307C10.3799 21.9672 11.2443 22.8684 12.3681 23.1966C13.3794 23.4976 14.4734 23.3037 15.3197 22.6735C16.166 22.0434 16.6653 21.0508 16.6668 19.9956H16.6718V4.66667C16.6718 4.29848 16.9703 4 17.3385 4H21.3385V4.22944C21.3386 6.93187 23.3615 9.20639 26.0455 9.52179C26.3908 9.54925 26.6593 9.83367 26.6668 10.18V13.62C26.6689 13.8049 26.5937 13.9822 26.4595 14.1093C26.3253 14.2364 26.1441 14.3018 25.9597 14.2898C24.2884 14.1358 22.6908 13.5292 21.3385 12.5352V20L21.3335 19.9895Z" stroke="white" stroke-width="1.5" stroke-linecap="round" stroke-linejoin="round"/>
</svg>
